<?xml version="1.0" encoding="UTF-8" standalone="no"?><!DOCTYPE svg PUBLIC "-//W3C//DTD SVG 1.1//EN" "http://www.w3.org/Graphics/SVG/1.1/DTD/svg11.dtd"><svg width="100%" height="100%" viewBox="0 0 320 64" version="1.1" xmlns="http://www.w3.org/2000/svg" xmlns:xlink="http://www.w3.org/1999/xlink" xml:space="preserve" xmlns:serif="http://www.serif.com/" style="fill-rule:evenodd;clip-rule:evenodd;stroke-linejoin:round;stroke-miterlimit:2;"><rect id="Artboard1" x="0" y="0" width="320" height="64" style="fill:none;"/><path d="M201.803,8.412c0.587,-0.566 1.173,-1.103 1.755,-1.61c3.637,-3.164 7.187,-5.143 10.102,-5.857c2.272,-0.557 4.218,-0.36 5.672,0.478c1.503,0.867 2.693,2.527 3.367,4.888c0.87,3.044 0.913,7.354 -0.125,12.39c-0.105,0.508 -0.221,1.023 -0.349,1.545c0.783,0.226 1.539,0.465 2.268,0.715c4.558,1.569 8.046,3.655 10.121,5.824c1.617,1.69 2.419,3.474 2.419,5.153c-0,1.736 -0.844,3.595 -2.552,5.359c-2.202,2.274 -5.914,4.464 -10.794,6.08c-0.427,0.142 -0.865,0.279 -1.311,0.41c0.16,0.64 0.301,1.27 0.423,1.887c0.972,4.908 0.853,9.121 -0.055,12.103c-0.701,2.303 -1.891,3.927 -3.362,4.777c-1.441,0.834 -3.353,1.054 -5.586,0.543c-2.874,-0.656 -6.374,-2.551 -9.992,-5.663c-0.63,-0.542 -1.265,-1.122 -1.903,-1.737c-0.492,0.475 -0.984,0.929 -1.475,1.358c-3.766,3.293 -7.475,5.294 -10.513,5.997c-2.344,0.543 -4.346,0.323 -5.817,-0.526c-1.442,-0.832 -2.587,-2.378 -3.26,-4.568c-0.867,-2.819 -0.974,-6.797 -0.085,-11.485c0.156,-0.818 0.341,-1.66 0.556,-2.524c-0.656,-0.187 -1.293,-0.387 -1.909,-0.597c-4.733,-1.618 -8.32,-3.831 -10.446,-6.111c-1.641,-1.76 -2.451,-3.603 -2.451,-5.303c0,-1.664 0.768,-3.429 2.329,-5.106c2.009,-2.158 5.403,-4.238 9.908,-5.809c0.832,-0.289 1.703,-0.563 2.611,-0.82c-0.198,-0.796 -0.372,-1.576 -0.521,-2.337c-0.925,-4.731 -0.867,-8.795 -0.03,-11.677c0.652,-2.247 1.795,-3.834 3.248,-4.675c1.502,-0.869 3.534,-1.071 5.915,-0.476c3.072,0.766 6.827,2.881 10.672,6.295c0.389,0.345 0.779,0.705 1.17,1.079Zm17.659,36.139c-2.928,0.676 -6.152,1.17 -9.55,1.472c-1.918,2.775 -3.906,5.313 -5.914,7.511c0.594,0.572 1.185,1.111 1.771,1.616c3.162,2.72 6.186,4.436 8.698,5.01c1.358,0.31 2.53,0.293 3.406,-0.214c0.916,-0.53 1.552,-1.612 1.988,-3.046c0.799,-2.622 0.837,-6.326 -0.018,-10.641c-0.111,-0.56 -0.238,-1.129 -0.381,-1.708Zm-35.234,0.135c-0.199,0.802 -0.372,1.586 -0.516,2.348c-0.777,4.098 -0.753,7.575 0.004,10.038c0.409,1.332 1.009,2.339 1.885,2.844c0.917,0.529 2.173,0.539 3.633,0.201c2.67,-0.618 5.898,-2.435 9.209,-5.33c0.449,-0.392 0.898,-0.806 1.347,-1.24c-2.043,-2.194 -4.091,-4.717 -6.06,-7.486c-3.377,-0.275 -6.583,-0.731 -9.502,-1.375Zm21.804,1.595c-1.403,0.064 -2.827,0.095 -4.264,0.095c-1.391,0 -2.77,-0.026 -4.13,-0.08c1.397,1.842 2.824,3.547 4.249,5.085c1.399,-1.539 2.787,-3.252 4.145,-5.1Zm2.171,-25.398c-2.087,-0.159 -4.24,-0.242 -6.435,-0.242c-2.183,-0 -4.333,0.082 -6.423,0.24c-1.179,1.727 -2.325,3.548 -3.419,5.446l-0,0.001c-1.091,1.89 -2.094,3.794 -3.002,5.683c0.907,1.884 1.913,3.787 3.011,5.684c1.1,1.9 2.255,3.73 3.445,5.468c2.079,0.134 4.218,0.2 6.388,0.2c2.195,0 4.36,-0.076 6.464,-0.226c1.16,-1.741 2.29,-3.567 3.378,-5.454c1.097,-1.903 2.113,-3.816 3.034,-5.712c-0.929,-1.877 -1.95,-3.772 -3.043,-5.66c-1.089,-1.882 -2.227,-3.7 -3.398,-5.428Zm-20.877,14.669c-0.9,2.133 -1.666,4.224 -2.287,6.23c2.036,0.444 4.218,0.791 6.502,1.046c-0.757,-1.176 -1.497,-2.385 -2.214,-3.623l0,-0c-0.704,-1.218 -1.372,-2.437 -2.001,-3.653Zm28.943,-0.106c-0.647,1.248 -1.331,2.497 -2.048,3.742c-0.705,1.222 -1.427,2.419 -2.164,3.585c2.315,-0.278 4.524,-0.653 6.58,-1.123c-0.638,-2 -1.436,-4.08 -2.368,-6.204Zm-34.11,-12.342c-0.844,0.24 -1.655,0.495 -2.429,0.765c-3.938,1.372 -6.939,3.13 -8.694,5.016c-0.949,1.019 -1.522,2.042 -1.522,3.053c0,1.059 0.619,2.152 1.642,3.248c1.869,2.004 5.055,3.892 9.217,5.315c0.562,0.192 1.143,0.374 1.742,0.546c0.884,-2.881 2.055,-5.931 3.481,-9.035c-1.409,-3.062 -2.563,-6.064 -3.437,-8.908Zm39.259,0.045c-0.871,2.815 -2.032,5.785 -3.435,8.808c1.456,3.068 2.669,6.078 3.571,8.932c0.404,-0.12 0.799,-0.244 1.186,-0.372c4.315,-1.429 7.63,-3.306 9.577,-5.316c1.059,-1.094 1.703,-2.186 1.703,-3.263c-0,-1.019 -0.602,-2.044 -1.583,-3.07c-1.823,-1.905 -4.92,-3.679 -8.925,-5.058c-0.673,-0.231 -1.373,-0.452 -2.094,-0.661Zm-19.65,2.492c3.477,0 6.299,2.823 6.299,6.3c0,3.476 -2.822,6.299 -6.299,6.299c-3.476,-0 -6.299,-2.823 -6.299,-6.299c-0,-3.477 2.823,-6.3 6.299,-6.3Zm10.296,-4.369c0.731,1.147 1.448,2.325 2.145,3.529c0.708,1.224 1.386,2.45 2.031,3.674c0.888,-2.079 1.647,-4.118 2.258,-6.078c-2.017,-0.461 -4.174,-0.839 -6.434,-1.125Zm-20.585,-0.006c-2.245,0.28 -4.39,0.65 -6.396,1.099c0.61,1.968 1.36,4.014 2.241,6.103c0.627,-1.216 1.292,-2.433 1.992,-3.646c0.702,-1.217 1.424,-2.404 2.163,-3.556Zm27.829,-1.773c0.115,-0.473 0.22,-0.94 0.315,-1.4c0.918,-4.453 0.948,-8.263 0.179,-10.955c-0.418,-1.463 -1.043,-2.567 -1.975,-3.104c-0.882,-0.509 -2.072,-0.5 -3.45,-0.162c-2.561,0.627 -5.646,2.423 -8.841,5.204c-0.538,0.468 -1.079,0.963 -1.622,1.485c2.02,2.178 4.029,4.69 5.961,7.441c3.357,0.315 6.533,0.822 9.433,1.491Zm-19.616,-8.93c-0.354,-0.338 -0.707,-0.664 -1.06,-0.977c-3.399,-3.019 -6.685,-4.947 -9.4,-5.625c-1.477,-0.369 -2.745,-0.378 -3.677,0.161c-0.882,0.51 -1.468,1.545 -1.864,2.908c-0.735,2.532 -0.719,6.101 0.094,10.258c0.139,0.708 0.3,1.433 0.484,2.174c2.896,-0.656 6.071,-1.153 9.413,-1.464c1.952,-2.754 3.98,-5.255 6.01,-7.435Zm2.112,2.151c-1.407,1.517 -2.811,3.195 -4.188,5.01c1.367,-0.064 2.753,-0.096 4.152,-0.096c1.414,-0 2.812,0.033 4.187,0.098c-1.362,-1.815 -2.753,-3.498 -4.151,-5.012Z" style="fill:#7fff00;"/><g transform="matrix(4.31607,0,0,4.31607,-552.188,-77.1788)"><text x="128.781px" y="29.544px" style="font-family:'AvenirNext-HeavyItalic', 'Avenir Next', sans-serif;font-weight:900;font-style:italic;font-size:12px;fill:#7fff00;">PSE</text><text x="151.257px" y="29.544px" style="font-family:'AvenirNext-HeavyItalic', 'Avenir Next', sans-serif;font-weight:900;font-style:italic;font-size:12px;fill:#7fff00;">U</text><text x="160.269px" y="29.544px" style="font-family:'AvenirNext-HeavyItalic', 'Avenir Next', sans-serif;font-weight:900;font-style:italic;font-size:12px;fill:#7fff00;">D</text></g><g transform="matrix(4.31607,0,0,4.31607,-329.79,-76.1429)"><text x="128.781px" y="29.544px" style="font-family:'AvenirNext-HeavyItalic', 'Avenir Next', sans-serif;font-weight:900;font-style:italic;font-size:12px;fill:#7fff00;">P</text><text x="136.581px" y="29.544px" style="font-family:'AvenirNext-HeavyItalic', 'Avenir Next', sans-serif;font-weight:900;font-style:italic;font-size:12px;fill:#7fff00;">IA</text></g></svg>